<svg width="20" height="18" viewBox="0 0 20 18" fill="none" xmlns="http://www.w3.org/2000/svg">
<path d="M5.875 17.25C6.77246 17.25 7.5 16.5225 7.5 15.625C7.5 14.7275 6.77246 14 5.875 14C4.97754 14 4.25 14.7275 4.25 15.625C4.25 16.5225 4.97754 17.25 5.875 17.25Z" fill="#E45547"/>
<path d="M15.625 17.25C16.5225 17.25 17.25 16.5225 17.25 15.625C17.25 14.7275 16.5225 14 15.625 14C14.7275 14 14 14.7275 14 15.625C14 16.5225 14.7275 17.25 15.625 17.25Z" fill="#E45547"/>
<path d="M1 1H3.16667L3.81667 4.25M3.81667 4.25L5.33333 11.8333H16.1667L18.3333 4.25H3.81667Z" stroke="#E45547" stroke-width="2" stroke-linecap="round" stroke-linejoin="round"/>
</svg>
