<svg width="19" height="21" viewBox="0 0 19 21" fill="none" xmlns="http://www.w3.org/2000/svg">
<path d="M9.5 1C11.7587 1 13.9226 1.88549 15.5156 3.45703C17.108 5.02809 18 7.1563 18 9.37207C17.9999 12.0156 16.6277 14.2726 14.9883 16.0244L14.6602 16.3643C13.7745 17.2476 12.8083 18.0489 11.7734 18.7578L11.333 19.0537L11.1387 19.1816L10.7402 19.4316L10.4023 19.6348L9.98828 19.8721C9.84052 19.9553 9.6719 20 9.5 20C9.3281 20 9.15948 19.9553 9.01172 19.8721H9.01074L8.60059 19.6367H8.60156L8.05273 19.3037L7.87891 19.1924H7.87988L7.44727 18.9082C6.32956 18.1616 5.28836 17.3091 4.33887 16.3633C2.55902 14.5663 1.00011 12.1893 1 9.37207C1 7.1563 1.89198 5.02809 3.48438 3.45703C5.07742 1.88549 7.24131 1 9.5 1ZM9.5 5.24805C8.95482 5.24805 8.41457 5.35351 7.91016 5.55957C7.40562 5.76574 6.94611 6.06889 6.55859 6.45117C6.17111 6.83345 5.86282 7.28783 5.65234 7.78906C5.44184 8.2904 5.33301 8.82861 5.33301 9.37207C5.33305 9.91534 5.44195 10.4529 5.65234 10.9541C5.86283 11.4554 6.17105 11.9107 6.55859 12.293C6.94607 12.6752 7.40571 12.9775 7.91016 13.1836C8.41461 13.3897 8.95477 13.4961 9.5 13.4961C10.6006 13.4961 11.659 13.0647 12.4414 12.293C13.2242 11.5207 13.6669 10.4701 13.667 9.37207C13.667 8.27396 13.2242 7.22347 12.4414 6.45117C11.659 5.67932 10.6007 5.24805 9.5 5.24805Z" stroke="#9D9FC0" stroke-width="2"/>
</svg>
