<svg width="24" height="24" viewBox="0 0 24 24" fill="none" xmlns="http://www.w3.org/2000/svg">
<path d="M17.304 9.52403L20.486 12.706C21.0023 13.2155 21.4128 13.8221 21.6937 14.4908C21.9747 15.1596 22.1206 15.8773 22.123 16.6027C22.1254 17.328 21.9843 18.0467 21.7079 18.7173C21.4314 19.388 21.025 19.9973 20.5121 20.5102C19.9992 21.0231 19.3899 21.4295 18.7193 21.7059C18.0486 21.9824 17.33 22.1235 16.6046 22.1211C15.8792 22.1186 15.1615 21.9727 14.4928 21.6918C13.824 21.4108 13.2174 21.0004 12.708 20.484L11.648 19.424C11.5046 19.2857 11.3903 19.1203 11.3116 18.9373C11.2329 18.7543 11.1914 18.5575 11.1896 18.3584C11.1878 18.1592 11.2256 17.9617 11.301 17.7773C11.3763 17.5929 11.4876 17.4254 11.6284 17.2845C11.7691 17.1436 11.9366 17.0321 12.1209 16.9566C12.3052 16.8811 12.5027 16.843 12.7019 16.8447C12.901 16.8463 13.0979 16.8876 13.2809 16.9661C13.464 17.0446 13.6295 17.1588 13.768 17.302L14.83 18.363C15.2996 18.8284 15.9344 19.0888 16.5955 19.0873C17.2567 19.0857 17.8903 18.8224 18.3577 18.3548C18.8252 17.8872 19.0884 17.2536 19.0897 16.5924C19.0911 15.9313 18.8305 15.2965 18.365 14.827L15.183 11.645C14.839 11.301 14.4022 11.0647 13.926 10.9652C13.4498 10.8658 12.9549 10.9074 12.502 11.085C12.3406 11.149 12.1893 11.2144 12.048 11.281L11.584 11.498C10.964 11.778 10.487 11.898 9.87996 11.292C9.00796 10.42 9.23396 9.61503 10.297 8.88203C11.3559 8.15339 12.6365 7.81864 13.9166 7.93592C15.1966 8.0532 16.3951 8.6151 17.304 9.52403ZM11.294 3.51403L12.354 4.57403C12.6273 4.85681 12.7787 5.23564 12.7755 5.62894C12.7722 6.02224 12.6147 6.39853 12.3367 6.67678C12.0587 6.95502 11.6826 7.11295 11.2893 7.11655C10.896 7.12016 10.517 6.96914 10.234 6.69603L9.17296 5.63603C8.94241 5.39719 8.66661 5.20666 8.36163 5.07555C8.05666 4.94445 7.72863 4.87539 7.39668 4.87241C7.06474 4.86943 6.73552 4.93259 6.42824 5.05821C6.12097 5.18382 5.84179 5.36938 5.60699 5.60404C5.37219 5.83871 5.18648 6.11778 5.06069 6.42499C4.9349 6.73219 4.87155 7.06137 4.87434 7.39332C4.87713 7.72527 4.94601 8.05334 5.07694 8.35839C5.20788 8.66343 5.39825 8.93935 5.63696 9.17003L8.81896 12.352C9.16289 12.6961 9.59974 12.9324 10.076 13.0318C10.5522 13.1313 11.0471 13.0897 11.5 12.912C11.6613 12.848 11.8126 12.7827 11.954 12.716L12.418 12.499C13.038 12.219 13.516 12.099 14.122 12.705C14.994 13.577 14.768 14.382 13.705 15.115C12.6461 15.8437 11.3654 16.1784 10.0854 16.0611C8.80535 15.9439 7.60683 15.382 6.69796 14.473L3.51596 11.291C2.99962 10.7816 2.58916 10.175 2.30821 9.50624C2.02726 8.83749 1.88137 8.11977 1.87894 7.3944C1.87651 6.66904 2.01759 5.95035 2.29405 5.27973C2.57052 4.60911 2.9769 3.9998 3.48982 3.48689C4.00273 2.97397 4.61204 2.56759 5.28266 2.29112C5.95328 2.01466 6.67196 1.87358 7.39733 1.87601C8.1227 1.87844 8.84042 2.02433 9.50917 2.30528C10.1779 2.58623 10.7845 2.99769 11.294 3.51403Z" fill="#D8D9E2"/>
</svg>
