<svg width="17" height="18" viewBox="0 0 17 18" fill="none" xmlns="http://www.w3.org/2000/svg">
<path d="M10.1016 0.155425L9.59158 0.0838457C8.05883 -0.137461 6.49476 0.0814794 5.08169 0.715142C3.66862 1.3488 2.46479 2.37108 1.61053 3.66279C0.701613 4.89751 0.159787 6.36377 0.0474025 7.89283C-0.0649818 9.42189 0.256643 10.9516 0.975263 12.306C1.04881 12.4417 1.0946 12.5907 1.10996 12.7443C1.12532 12.8979 1.10995 13.0531 1.06474 13.2007C0.697895 14.4623 0.357895 15.7328 0 17.066L0.447368 16.9317C1.65526 16.6096 2.86316 16.2875 4.07105 15.9923C4.326 15.9393 4.591 15.9642 4.83158 16.0638C5.91528 16.5927 7.09958 16.8837 8.30499 16.9172C9.5104 16.9508 10.709 16.7261 11.8205 16.2582C12.9319 15.7904 13.9304 15.0902 14.7489 14.2047C15.5675 13.3192 16.1872 12.2688 16.5664 11.1241C16.9456 9.97943 17.0755 8.76686 16.9475 7.56779C16.8195 6.36872 16.4366 5.2109 15.8243 4.17204C15.212 3.13317 14.3846 2.23729 13.3975 1.54453C12.4105 0.851758 11.2867 0.378129 10.1016 0.155425ZM12.3563 11.8944C12.0311 12.1855 11.6346 12.3853 11.2071 12.4733C10.7796 12.5613 10.3364 12.5344 9.92263 12.3954C8.04811 11.8668 6.42175 10.6906 5.33263 9.07595C4.91674 8.50475 4.58247 7.87837 4.33947 7.2149C4.20782 6.82996 4.18407 6.41632 4.27082 6.01885C4.35757 5.62137 4.55151 5.25524 4.83158 4.96016C4.96792 4.78615 5.15352 4.65723 5.36418 4.5902C5.57484 4.52317 5.8008 4.52114 6.01263 4.58437C6.19158 4.62911 6.31684 4.88858 6.47789 5.08542C6.60912 5.45525 6.76123 5.81613 6.93421 6.16806C7.06522 6.34746 7.11994 6.5714 7.08641 6.79101C7.05288 7.01061 6.93384 7.20803 6.75526 7.34016C6.35263 7.69806 6.41526 7.99332 6.70158 8.39595C7.33421 9.30816 8.20771 10.0268 9.22474 10.4717C9.51105 10.597 9.72579 10.6238 9.91368 10.3286C9.99421 10.2123 10.1016 10.1138 10.1911 10.0065C10.71 9.35332 10.5489 9.36227 11.3721 9.72016C11.6346 9.83051 11.8881 9.95876 12.1326 10.1049C12.3742 10.2481 12.7411 10.4002 12.7947 10.6149C12.8464 10.8479 12.8328 11.0906 12.7554 11.3163C12.6781 11.542 12.54 11.742 12.3563 11.8944Z" fill="#2D338E"/>
</svg>
