<svg width="72" height="12" viewBox="0 0 72 12" fill="none" xmlns="http://www.w3.org/2000/svg">
<path d="M62.5878 1.34175V0.263184H71.8373V1.04759L63.8952 10.6239H72.0008V11.7025H62.2773V10.9181L70.1868 1.34175H62.5878Z" fill="#464866"/>
<path d="M52.5957 1.34175V0.263184H61.8451V1.04759L53.903 10.6239H62.0086V11.7025H52.2852V10.9181L60.1946 1.34175H52.5957Z" fill="#464866"/>
<path d="M41.4766 11.7027L46.4935 0.230713H47.4413L52.4583 11.7027H51.249L49.8599 8.56506H43.9932L42.6532 11.7027H41.4766ZM46.9347 1.76685L44.4671 7.51918H49.435L46.9347 1.76685Z" fill="#464866"/>
<path d="M40.1813 0.263184V8.30338C40.1813 9.43641 39.8708 10.3134 39.2499 10.9344C38.6398 11.5445 37.8227 11.8496 36.7986 11.8496C35.9815 11.8496 35.2897 11.648 34.7232 11.2449C34.1567 10.8418 33.7372 10.3625 33.4648 9.80683L34.3473 9.15315C34.587 9.61073 34.9138 9.99748 35.3278 10.3134C35.7527 10.6294 36.2212 10.7873 36.7332 10.7873C37.474 10.7656 38.0406 10.5531 38.4328 10.15C38.825 9.73601 39.0211 9.0551 39.0211 8.10727V0.263184H40.1813Z" fill="#464866"/>
<path d="M21.2227 5.98118C21.2227 4.32521 21.7892 2.92525 22.9222 1.78132C24.0661 0.637395 25.4661 0.0654297 27.1221 0.0654297C28.7671 0.0654297 30.1562 0.631947 31.2892 1.76498C32.4332 2.88712 33.0051 4.29252 33.0051 5.98118C33.0051 7.65895 32.4332 9.06435 31.2892 10.1974C30.1562 11.3304 28.7671 11.8969 27.1221 11.8969C25.477 11.8969 24.0825 11.3359 22.9386 10.2137C21.7946 9.08069 21.2227 7.66984 21.2227 5.98118ZM24.8015 3.48088C24.1696 4.12366 23.8537 4.95709 23.8537 5.98118C23.8537 7.00527 24.1696 7.83871 24.8015 8.48149C25.4443 9.12427 26.2178 9.44566 27.1221 9.44566C28.0481 9.44566 28.8216 9.12971 29.4426 8.49783C30.0636 7.85505 30.3741 7.01617 30.3741 5.98118C30.3741 4.95709 30.0473 4.12366 29.3936 3.48088C28.7508 2.8381 27.9936 2.51671 27.1221 2.51671C26.2178 2.51671 25.4443 2.8381 24.8015 3.48088Z" fill="#464866"/>
<path d="M11.1797 11.7025V0.263184H19.9226V2.63275H13.7127V4.75719H19.514V7.04505H13.7127V9.33291H20.0697V11.7025H11.1797Z" fill="#464866"/>
<path d="M6.56943 9.29852C6.86358 9.09152 7.01066 8.8355 7.01066 8.53045C7.01066 8.2254 6.85269 7.96938 6.53674 7.76238C6.2208 7.54449 5.8286 7.38107 5.36013 7.27213C4.89166 7.15229 4.37962 6.99976 3.82399 6.81455C3.26837 6.62935 2.75633 6.42235 2.28786 6.19356C1.81939 5.96478 1.42719 5.6216 1.11125 5.16403C0.795304 4.69556 0.637332 4.13449 0.637332 3.48082C0.637332 2.53299 1.04588 1.71589 1.86297 1.02954C2.69096 0.343179 3.75863 0 5.06598 0C6.99431 0 8.48687 0.7027 9.54364 2.1081L7.84409 3.74229C7.0161 2.82714 6.05738 2.36957 4.96793 2.36957C3.82399 2.36957 3.25203 2.72909 3.25203 3.44813C3.25203 3.7205 3.41 3.94928 3.72594 4.13449C4.04189 4.3197 4.43409 4.46677 4.90256 4.57572C5.37102 4.67377 5.88307 4.8154 6.43869 5.00061C6.99431 5.18582 7.50636 5.39281 7.97483 5.6216C8.44329 5.85039 8.8355 6.19901 9.15144 6.66748C9.46738 7.13594 9.62535 7.69157 9.62535 8.33435C9.62535 9.36933 9.21136 10.2355 8.38337 10.9327C7.55539 11.6191 6.52585 11.9622 5.29476 11.9622C3.99831 11.9622 2.89796 11.7008 1.99371 11.1778C1.08946 10.6549 0.424888 9.98487 0 9.16778L1.84663 7.63165C2.22794 8.24174 2.71275 8.7211 3.30105 9.06973C3.88936 9.41836 4.53214 9.59267 5.22939 9.59267C5.8286 9.59267 6.27527 9.49462 6.56943 9.29852Z" fill="#464866"/>
</svg>
