<svg width="21" height="11" viewBox="0 0 21 11" fill="none" xmlns="http://www.w3.org/2000/svg">
<path d="M20.1562 10.9991H17.8568C16.9872 10.9991 16.7253 10.3781 15.1665 9.00282C13.8042 7.8452 13.2289 7.70128 12.8843 7.70128C12.4077 7.70128 12.2777 7.81677 12.2777 8.39514V10.2182C12.2777 10.7113 12.0963 11 10.6353 11C9.21788 10.916 7.84337 10.5364 6.62498 9.89227C5.40659 9.24817 4.37918 8.35806 3.62738 7.29527C1.84293 5.33596 0.600945 3.0369 0 0.580549C0 0.276707 0.130989 0.00129558 0.787948 0.00129558H3.08529C3.67575 0.00129558 3.88835 0.233175 4.1201 0.768895C5.23552 3.66338 7.13889 6.18118 7.91172 6.18118C8.20796 6.18118 8.33693 6.06569 8.33693 5.41447V2.43292C8.2392 1.07274 7.42001 0.95813 7.42001 0.465942C7.43037 0.336091 7.49774 0.214916 7.6078 0.128157C7.71787 0.0413971 7.86196 -0.0041121 8.00946 0.00129558H11.6207C12.1145 0.00129558 12.2777 0.218071 12.2777 0.738688V4.76326C12.2777 5.1977 12.4893 5.34162 12.6384 5.34162C12.9346 5.34162 13.1624 5.19769 13.7055 4.71972C14.8691 3.46763 15.8202 2.07302 16.5288 0.57966C16.601 0.400166 16.7379 0.246494 16.9186 0.14219C17.0994 0.0378863 17.3139 -0.0112945 17.5293 0.00218394H19.8277C20.5169 0.00218394 20.663 0.306026 20.5169 0.739577C19.6807 2.39054 18.6464 3.95777 17.4316 5.41447C17.1837 5.74763 17.085 5.92087 17.4316 6.31178C17.6593 6.61562 18.4654 7.20909 19.0065 7.77324C19.7944 8.46621 20.4484 9.26757 20.9431 10.1453C21.1406 10.7104 20.8121 10.9991 20.1562 10.9991Z" fill="#A2A3B4"/>
</svg>
