<svg width="1157" height="176" viewBox="0 0 1157 176" fill="none" xmlns="http://www.w3.org/2000/svg">
<g clip-path="url(#clip0_390_1823)">
<path d="M107.133 234.869C91.8238 234.869 77.6905 233.383 64.7335 230.411C51.7765 227.438 39.9357 222.972 29.2284 217.019C18.521 211.067 8.76679 203.535 0 194.406L20.8136 167.623C34.0797 180.921 47.5948 190.636 61.3676 196.784C75.1403 202.932 90.4929 206.006 107.434 206.006C118.038 206.006 128.248 204.766 138.045 202.286C147.842 199.807 155.896 196.036 162.224 190.975C168.553 185.914 171.712 179.52 171.712 171.784C171.712 166.825 169.978 162.758 166.509 159.582C163.04 156.406 158.498 153.833 152.891 151.846C147.275 149.867 141.205 148.271 134.679 147.082C128.145 145.893 121.868 145.002 115.857 144.407C109.838 143.813 104.781 143.32 100.702 142.921C87.0239 141.138 74.6337 138.709 63.5056 135.627C52.3861 132.553 42.8895 128.638 35.0414 123.875C27.1848 119.111 21.1657 113.26 16.9841 106.314C12.8024 99.3677 10.7073 91.3347 10.7073 82.2147C10.7073 72.5002 13.103 63.8133 17.9028 56.1708C22.6941 48.5369 29.4259 42.0832 38.1068 36.8269C46.7791 31.5706 56.8768 27.5541 68.4085 24.7773C79.9315 22.0005 92.442 20.6079 105.906 20.6079C120.185 20.6079 133.254 22.0005 145.086 24.7773C156.918 27.5626 167.479 31.6725 176.761 37.1241C186.043 42.5842 193.754 49.2756 199.876 57.2068L177.835 80.7201C172.125 73.9778 165.487 68.2714 157.94 63.6095C150.384 58.9476 142.175 55.4236 133.296 53.0459C124.418 50.6683 114.973 49.4794 104.978 49.4794C93.9618 49.4794 84.053 50.6683 75.2862 53.0459C66.5109 55.4236 59.573 58.7523 54.4726 63.0151C49.3722 67.2864 46.8221 72.4917 46.8221 78.6397C46.8221 83.9979 48.402 88.5664 51.5704 92.3282C54.7302 96.0985 59.1694 99.2234 64.888 101.703C70.598 104.191 77.4844 106.22 85.5471 107.8C93.6098 109.388 102.54 110.772 112.328 111.969C124.573 113.362 136.405 115.145 147.833 117.328C159.262 119.51 169.463 122.533 178.444 126.405C187.417 130.277 194.561 135.483 199.876 142.03C205.182 148.577 207.836 157.111 207.836 167.623C207.836 181.117 203.654 192.92 195.282 203.034C186.91 213.147 175.233 220.993 160.232 226.538C145.232 232.092 127.526 234.869 107.125 234.869H107.133Z" fill="#FBFBFB"/>
<path d="M319.126 234.873C305.654 234.873 292.903 233.184 280.865 229.812C268.827 226.441 259.029 221.236 251.482 214.188C243.926 207.148 240.156 198.266 240.156 187.558C240.156 176.85 242.706 168.172 247.807 161.523C252.907 154.874 259.948 149.77 268.921 146.195C277.902 142.629 288.155 140.2 299.686 138.901C311.218 137.61 323.411 136.965 336.265 136.965H418.3L415.544 161.37H339.021C327.592 161.37 317.589 161.718 309.02 162.414C300.451 163.111 293.255 164.299 287.442 165.981C281.629 167.671 277.241 169.997 274.279 172.969C271.325 175.941 269.84 179.618 269.84 183.983C269.84 189.74 271.78 194.453 275.653 198.122C279.525 201.79 285.244 204.473 292.791 206.155C300.339 207.845 309.526 208.685 320.345 208.685C332.384 208.685 344.173 207.301 355.704 204.516C367.228 201.739 377.591 198.173 386.779 193.799C395.966 189.435 402.999 184.875 407.893 180.111L415.243 200.049C409.937 205.603 402.235 211.063 392.137 216.413C382.039 221.771 370.654 226.186 358.006 229.651C345.349 233.116 332.392 234.856 319.126 234.856V234.873ZM403.918 231.901V147.987C403.918 131.318 397.649 119.226 385.096 111.685C372.543 104.145 354.837 100.374 331.989 100.374C320.766 100.374 308.925 101.911 296.484 104.985C284.033 108.068 273.017 113.273 263.426 120.61L245.978 99.4829C256.994 91.9423 269.745 85.5481 284.239 80.2918C298.725 75.0355 314.85 72.4031 332.607 72.4031C352.605 72.4031 370.104 74.6873 385.105 79.2473C400.105 83.8158 411.731 91.1016 420 101.122C428.269 111.142 432.399 124.584 432.399 141.44V231.901H403.935H403.918Z" fill="#FBFBFB"/>
<path d="M467.867 109.586V81.3175H606.23V109.586H467.867ZM505.819 231.891V75.9678C505.819 63.4681 508.627 52.412 514.234 42.791C519.841 33.17 527.646 25.6294 537.649 20.1693C547.644 14.7177 559.081 11.9834 571.935 11.9834C582.952 11.9834 592.294 13.4694 599.944 16.45C607.595 19.4221 613.056 22.3007 616.319 25.0775L605.603 51.5629C601.928 48.9899 597.334 46.5019 591.83 44.1242C586.318 41.7465 580.908 40.5492 575.61 40.5492C565.401 40.5492 557.287 42.2391 551.276 45.6102C545.257 48.9814 540.972 53.3461 538.422 58.7043C535.872 64.0625 534.593 69.8199 534.593 75.9593V231.891H505.819Z" fill="#FBFBFB"/>
<path d="M734.107 234.871C712.882 234.871 694.009 231.449 677.48 224.605C660.951 217.761 648.045 208.343 638.763 196.336C629.473 184.338 624.836 170.7 624.836 155.415C624.836 142.321 627.635 130.67 633.251 120.447C638.858 110.231 646.611 101.553 656.511 94.4112C666.412 87.2697 677.789 81.7672 690.643 77.895C703.497 74.0228 717.072 72.0952 731.351 72.0952C744.823 72.0952 757.471 73.9294 769.312 77.5978C781.144 81.2747 791.551 86.48 800.532 93.2224C809.514 99.9732 816.503 107.955 821.501 117.177C826.498 126.399 828.894 136.666 828.696 147.976L828.387 164.043H654.219L647.178 139.638H801.142L796.548 141.718V134.577C795.527 127.834 791.8 121.882 785.377 116.719C778.946 111.564 770.986 107.548 761.498 104.669C752.01 101.799 741.955 100.355 731.343 100.355C717.458 100.355 704.81 102.045 693.382 105.416C681.953 108.796 672.869 114.341 666.137 122.085C659.405 129.821 656.039 140.232 656.039 153.335C656.039 164.051 659.611 173.375 666.755 181.306C673.899 189.246 683.791 195.394 696.447 199.758C709.095 204.123 723.692 206.305 740.221 206.305C756.75 206.305 770.42 204.225 781.239 200.056C792.049 195.886 800.824 191.921 807.565 188.15L821.337 211.358C815.215 215.332 807.513 219.145 798.223 222.813C788.932 226.49 778.791 229.411 767.766 231.593C756.75 233.776 745.519 234.871 734.09 234.871H734.107Z" fill="#FBFBFB"/>
<path d="M778.099 306.787L914.838 203.325C941.001 183.591 977.554 183.591 1003.73 203.334L1059.1 245.104L1075.63 223.671L1020.26 181.901C984.354 154.812 934.192 154.812 898.292 181.901L761.535 285.371L778.099 306.779V306.787Z" fill="#FBFBFB"/>
<path d="M1140.44 0L1003.7 103.462C977.534 123.197 940.981 123.197 914.801 103.453L859.435 61.6832L842.906 83.116L898.272 124.886C934.181 151.975 984.343 151.975 1020.24 124.886L1157 21.4159L1140.44 0.00849163V0Z" fill="#FBFBFB"/>
</g>
<defs>
<clipPath id="clip0_390_1823">
<rect width="1157" height="176" fill="white"/>
</clipPath>
</defs>
</svg>
