<svg width="132" height="35" viewBox="0 0 132 35" fill="none" xmlns="http://www.w3.org/2000/svg">
<g clip-path="url(#clip0_335_165)">
<path d="M12.2225 26.7954C10.4758 26.7954 8.86341 26.6259 7.3852 26.2868C5.90698 25.9477 4.55612 25.4382 3.33456 24.7591C2.113 24.0799 1.00017 23.2206 0 22.1792L2.37455 19.1237C3.88803 20.6408 5.42992 21.7491 7.00119 22.4505C8.57247 23.1519 10.324 23.5026 12.2567 23.5026C13.4665 23.5026 14.6313 23.3611 15.749 23.0782C16.8667 22.7953 17.7856 22.3652 18.5076 21.7878C19.2295 21.2104 19.59 20.4809 19.59 19.5984C19.59 19.0326 19.3921 18.5686 18.9964 18.2062C18.6006 17.8439 18.0824 17.5504 17.4427 17.3237C16.8021 17.098 16.1095 16.9158 15.365 16.7802C14.6195 16.6446 13.9034 16.5429 13.2177 16.475C12.531 16.4072 11.954 16.351 11.4887 16.3055C9.92824 16.1021 8.51468 15.825 7.24511 15.4733C5.97653 15.1226 4.8931 14.676 3.99774 14.1325C3.10141 13.589 2.41471 12.9216 1.93765 12.1291C1.46058 11.3366 1.22156 10.4202 1.22156 9.37971C1.22156 8.27143 1.49487 7.28037 2.04246 6.40847C2.58908 5.53754 3.35709 4.80127 4.34746 4.20159C5.33686 3.60192 6.48886 3.14369 7.80447 2.8269C9.11909 2.51011 10.5464 2.35123 12.0824 2.35123C13.7114 2.35123 15.2024 2.51011 16.5523 2.8269C17.9022 3.14466 19.1071 3.61354 20.166 4.2355C21.225 4.85842 22.1047 5.62182 22.8031 6.52666L20.2885 9.2092C19.637 8.43999 18.8798 7.78898 18.0187 7.25712C17.1567 6.72526 16.2202 6.32322 15.2073 6.05196C14.1944 5.7807 13.1168 5.64507 11.9766 5.64507C10.7198 5.64507 9.5893 5.7807 8.58912 6.05196C7.58797 6.32322 6.79646 6.70298 6.21458 7.1893C5.63269 7.6766 5.34175 8.27046 5.34175 8.97185C5.34175 9.58315 5.522 10.1044 5.88347 10.5335C6.24396 10.9637 6.75042 11.3202 7.40283 11.6031C8.05426 11.8869 8.8399 12.1184 9.75975 12.2986C10.6796 12.4798 11.6984 12.6377 12.8151 12.7743C14.212 12.9332 15.5619 13.1366 16.8658 13.3856C18.1696 13.6346 19.3334 13.9795 20.358 14.4212C21.3817 14.863 22.1967 15.4569 22.8031 16.2038C23.4085 16.9507 23.7112 17.9243 23.7112 19.1237C23.7112 20.6631 23.2341 22.0097 22.279 23.1635C21.3239 24.3173 19.9917 25.2124 18.2803 25.8451C16.5689 26.4786 14.549 26.7954 12.2215 26.7954H12.2225Z" fill="#2D338E"/>
<path d="M36.4078 26.7954C34.8708 26.7954 33.4161 26.6026 32.0427 26.218C30.6693 25.8334 29.5516 25.2396 28.6905 24.4355C27.8285 23.6324 27.3984 22.619 27.3984 21.3974C27.3984 20.1758 27.6894 19.1857 28.2713 18.4271C28.8531 17.6686 29.6564 17.0863 30.6801 16.6785C31.7048 16.2716 32.8744 15.9945 34.19 15.8463C35.5056 15.699 36.8966 15.6254 38.3631 15.6254H47.7222L47.4077 18.4097H38.6775C37.3737 18.4097 36.2325 18.4494 35.2548 18.5288C34.2772 18.6083 33.4563 18.7439 32.7931 18.9357C32.1299 19.1285 31.6293 19.394 31.2914 19.733C30.9544 20.0721 30.7849 20.4916 30.7849 20.9895C30.7849 21.6464 31.0063 22.184 31.4481 22.6025C31.8899 23.0211 32.5423 23.3272 33.4034 23.519C34.2644 23.7118 35.3126 23.8077 36.5469 23.8077C37.9203 23.8077 39.2653 23.6498 40.5809 23.332C41.8955 23.0152 43.0779 22.6084 44.1261 22.1094C45.1742 21.6115 45.9765 21.0913 46.5349 20.5478L47.3734 22.8225C46.768 23.456 45.8893 24.079 44.7373 24.6893C43.5853 25.3006 42.2864 25.8044 40.8434 26.1996C39.3995 26.5949 37.9213 26.7935 36.4078 26.7935V26.7954ZM46.0814 26.4563V16.8829C46.0814 14.9812 45.3662 13.6016 43.9341 12.7414C42.5019 11.8811 40.482 11.4509 37.8753 11.4509C36.5949 11.4509 35.244 11.6263 33.8246 11.977C32.4042 12.3287 31.1474 12.9225 30.0532 13.7595L28.0626 11.3492C29.3194 10.489 30.7741 9.75946 32.4277 9.15979C34.0803 8.56012 35.92 8.2598 37.9458 8.2598C40.2273 8.2598 42.2237 8.5204 43.935 9.04063C45.6464 9.56183 46.9728 10.393 47.9161 11.5362C48.8595 12.6794 49.3307 14.2129 49.3307 16.136V26.4563H46.0833H46.0814Z" fill="#2D338E"/>
<path d="M53.375 12.5021V9.27701H69.1603V12.5021H53.375ZM57.7048 26.4554V8.66668C57.7048 7.24064 58.0252 5.97929 58.6648 4.88167C59.3045 3.78404 60.195 2.92377 61.3362 2.30085C62.4765 1.67889 63.7813 1.36694 65.2477 1.36694C66.5046 1.36694 67.5704 1.53648 68.4432 1.87652C69.316 2.21559 69.939 2.54401 70.3113 2.8608L69.0887 5.88242C68.6695 5.58888 68.1454 5.30502 67.5175 5.03377C66.8886 4.76251 66.2714 4.62591 65.667 4.62591C64.5023 4.62591 63.5765 4.8187 62.8908 5.2033C62.2041 5.58791 61.7153 6.08586 61.4244 6.69716C61.1334 7.30846 60.9875 7.96529 60.9875 8.66571V26.4554H57.7048Z" fill="#2D338E"/>
<path d="M83.7515 26.7954C81.33 26.7954 79.1768 26.405 77.2911 25.6242C75.4053 24.8433 73.933 23.769 72.8741 22.3991C71.8141 21.0302 71.2852 19.4744 71.2852 17.7306C71.2852 16.2367 71.6045 14.9075 72.2452 13.7411C72.8848 12.5757 73.7694 11.5856 74.8989 10.7709C76.0284 9.95612 77.3263 9.32835 78.7928 8.88659C80.2593 8.44483 81.808 8.22491 83.4371 8.22491C84.9741 8.22491 86.417 8.43417 87.7679 8.85268C89.1178 9.27216 90.3051 9.86602 91.3297 10.6352C92.3544 11.4054 93.1518 12.3161 93.7219 13.3682C94.292 14.4202 94.5653 15.5915 94.5428 16.8819L94.5075 18.7148H74.6373L73.8341 15.9306H91.3993L90.8752 16.1679V15.3532C90.7586 14.584 90.3335 13.9049 89.6007 13.3158C88.867 12.7278 87.9589 12.2696 86.8765 11.9411C85.794 11.6137 84.6469 11.449 83.4361 11.449C81.8521 11.449 80.4091 11.6418 79.1053 12.0264C77.8015 12.412 76.765 13.0446 75.997 13.9281C75.229 14.8107 74.845 15.9984 74.845 17.4932C74.845 18.7158 75.2525 19.7795 76.0676 20.6844C76.8826 21.5902 78.0111 22.2916 79.455 22.7895C80.898 23.2875 82.5633 23.5364 84.449 23.5364C86.3347 23.5364 87.8943 23.2991 89.1286 22.8234C90.3619 22.3478 91.363 21.8953 92.132 21.4652L93.7033 24.1129C93.0048 24.5663 92.1261 25.0012 91.0662 25.4198C90.0063 25.8392 88.8494 26.1725 87.5916 26.4215C86.3347 26.6704 85.0534 26.7954 83.7496 26.7954H83.7515Z" fill="#2D338E"/>
<path d="M88.7725 35L104.373 23.1964C107.357 20.945 111.528 20.945 114.514 23.1974L120.831 27.9628L122.717 25.5176L116.4 20.7522C112.303 17.6618 106.581 17.6618 102.485 20.7522L86.8828 32.5567L88.7725 34.999V35Z" fill="#2D338E"/>
<path d="M130.108 0L114.508 11.8036C111.523 14.055 107.353 14.055 104.366 11.8026L98.0498 7.0372L96.1641 9.4824L102.481 14.2478C106.577 17.3382 112.3 17.3382 116.396 14.2478L131.998 2.44326L130.108 0.000968778V0Z" fill="#2D338E"/>
</g>
<defs>
<clipPath id="clip0_335_165">
<rect width="132" height="35" fill="white"/>
</clipPath>
</defs>
</svg>
