<svg width="18" height="15" viewBox="0 0 18 15" fill="none" xmlns="http://www.w3.org/2000/svg">
<path d="M9.22006 0C9.70069 0.00281268 10.9031 0.0150009 12.1812 0.0684417L12.6348 0.0890679C13.921 0.151884 15.2063 0.260641 15.8444 0.44534C16.6949 0.694731 17.3628 1.4204 17.5887 2.34108C17.9487 3.80368 17.9937 6.65573 17.9991 7.34671L18 7.48922V7.65235C17.9937 8.34333 17.9487 11.1963 17.5887 12.658C17.3601 13.5815 16.6913 14.3081 15.8444 14.5537C15.2063 14.7384 13.921 14.8472 12.6348 14.91L12.1812 14.9316C10.9031 14.9841 9.70069 14.9972 9.22006 14.9991L9.00855 15H8.77904C7.76199 14.9934 3.50838 14.9456 2.15471 14.5537C1.30507 14.3043 0.636332 13.5787 0.410421 12.658C0.0504026 11.1954 0.00540027 8.34333 0 7.65235V7.34671C0.00540027 6.65573 0.0504026 3.80274 0.410421 2.34108C0.639032 1.41759 1.30777 0.690981 2.15561 0.446278C3.50838 0.0534407 7.76289 0.00562535 8.77994 0H9.22006ZM7.19946 4.21901V10.7819L12.5997 7.50047L7.19946 4.21901Z" fill="#A2A3B4"/>
</svg>
