<svg width="17" height="17" viewBox="0 0 17 17" fill="none" xmlns="http://www.w3.org/2000/svg">
<path d="M9.37381 0C10.33 0.00254994 10.8153 0.00764982 11.2344 0.0195495L11.3993 0.0254994C11.5896 0.0322992 11.7775 0.040799 12.0044 0.0509987C12.9088 0.0934977 13.5259 0.236294 14.0673 0.446239C14.6282 0.662134 15.1008 0.954527 15.5734 1.42627C16.0058 1.85103 16.3402 2.36504 16.5534 2.93243C16.7633 3.47387 16.9061 4.09095 16.9486 4.99618C16.9588 5.22227 16.9673 5.41012 16.9741 5.60136L16.9792 5.76626C16.992 6.18445 16.9971 6.66979 16.9988 7.62602L16.9996 8.2601V9.37357C17.0017 9.99355 16.9952 10.6135 16.9801 11.2333L16.975 11.3982C16.9682 11.5895 16.9597 11.7773 16.9495 12.0034C16.907 12.9086 16.7625 13.5249 16.5534 14.0672C16.3402 14.6345 16.0058 15.1486 15.5734 15.5733C15.1486 16.0057 14.6346 16.3402 14.0673 16.5533C13.5259 16.7633 12.9088 16.9061 12.0044 16.9486L11.3993 16.9741L11.2344 16.9792C10.8153 16.9911 10.33 16.997 9.37381 16.9987L8.73974 16.9996H7.62715C7.0069 17.0018 6.38666 16.9953 5.76659 16.98L5.6017 16.9749C5.39993 16.9673 5.1982 16.9585 4.99653 16.9486C4.09218 16.9061 3.47511 16.7633 2.93284 16.5533C2.36577 16.3401 1.85207 16.0056 1.42756 15.5733C0.994887 15.1486 0.660143 14.6346 0.446711 14.0672C0.236772 13.5257 0.0939787 12.9086 0.0514808 12.0034L0.0259821 11.3982L0.0217325 11.2333C0.00606439 10.6135 -0.00101935 9.99356 0.000483453 9.37357V7.62602C-0.00186914 7.00604 0.00436454 6.38606 0.0191826 5.76626L0.0251322 5.60136C0.0319319 5.41012 0.0404314 5.22227 0.0506309 4.99618C0.0931288 4.09095 0.235922 3.47472 0.445861 2.93243C0.65979 2.36481 0.995123 1.85078 1.42841 1.42627C1.85267 0.994093 2.36607 0.659647 2.93284 0.446239C3.47511 0.236294 4.09133 0.0934977 4.99653 0.0509987C5.22262 0.040799 5.41131 0.0322992 5.6017 0.0254994L5.76659 0.0203994C6.38637 0.00529767 7.00634 -0.00121946 7.6263 0.000849918L9.37381 0ZM8.50005 4.2499C7.37294 4.2499 6.29199 4.69765 5.495 5.49466C4.69801 6.29167 4.25027 7.37265 4.25027 8.49979C4.25027 9.62694 4.69801 10.7079 5.495 11.5049C6.29199 12.3019 7.37294 12.7497 8.50005 12.7497C9.62717 12.7497 10.7081 12.3019 11.5051 11.5049C12.3021 10.7079 12.7498 9.62694 12.7498 8.49979C12.7498 7.37265 12.3021 6.29167 11.5051 5.49466C10.7081 4.69765 9.62717 4.2499 8.50005 4.2499ZM8.50005 5.94986C8.83491 5.9498 9.16649 6.0157 9.47588 6.1438C9.78527 6.27189 10.0664 6.45967 10.3032 6.69641C10.54 6.93316 10.7279 7.21423 10.8561 7.52358C10.9843 7.83293 11.0503 8.16451 11.0504 8.49937C11.0504 8.83423 10.9845 9.16583 10.8564 9.47522C10.7283 9.78461 10.5405 10.0657 10.3038 10.3026C10.0671 10.5394 9.78601 10.7273 9.47667 10.8555C9.16732 10.9837 8.83576 11.0497 8.5009 11.0497C7.82464 11.0497 7.17607 10.7811 6.69787 10.3029C6.21968 9.82467 5.95103 9.17608 5.95103 8.49979C5.95103 7.82351 6.21968 7.17492 6.69787 6.69671C7.17607 6.21851 7.82464 5.94986 8.5009 5.94986M12.9632 2.97493C12.6814 2.97493 12.4112 3.08687 12.2119 3.28612C12.0127 3.48537 11.9007 3.75562 11.9007 4.0374C11.9007 4.31919 12.0127 4.58943 12.2119 4.78868C12.4112 4.98794 12.6814 5.09988 12.9632 5.09988C13.245 5.09988 13.5152 4.98794 13.7144 4.78868C13.9137 4.58943 14.0256 4.31919 14.0256 4.0374C14.0256 3.75562 13.9137 3.48537 13.7144 3.28612C13.5152 3.08687 13.245 2.97493 12.9632 2.97493Z" fill="#A2A3B4"/>
</svg>
