<svg width="17" height="17" viewBox="0 0 17 17" fill="none" xmlns="http://www.w3.org/2000/svg">
<path fill-rule="evenodd" clip-rule="evenodd" d="M8.68263 16.9515C7.01429 16.9515 6.23899 16.7069 4.89135 15.7284C4.03891 16.8292 1.33955 17.6894 1.22182 16.2176C1.22182 15.1128 0.978265 14.1793 0.702237 13.16C0.37345 11.9044 0 10.506 0 8.47983C0 3.64061 3.95367 0 8.63799 0C13.3264 0 17 3.82 17 8.52466C17.0157 13.1566 13.2945 16.9268 8.68263 16.9515ZM8.75165 4.18283C6.47038 4.06461 4.69243 5.6505 4.2987 8.13737C3.97396 10.1962 4.55037 12.7034 5.04153 12.8339C5.27696 12.891 5.86961 12.4099 6.23899 12.0389C6.8498 12.4627 7.56108 12.7172 8.30108 12.7768C10.6649 12.891 12.6846 11.0836 12.8433 8.71222C12.9357 6.33575 11.1157 4.32292 8.75165 4.18692V4.18283Z" fill="#2D338E"/>
</svg>
