<svg width="19" height="19" viewBox="0 0 19 19" fill="none" xmlns="http://www.w3.org/2000/svg">
<path fill-rule="evenodd" clip-rule="evenodd" d="M8.45124 1.90596e-08C7.1035 0.000114835 5.77532 0.322519 4.57752 0.940314C3.37972 1.55811 2.34703 2.45338 1.56561 3.55143C0.784199 4.64949 0.276714 5.91848 0.0854993 7.25255C-0.105715 8.58661 0.0248849 9.94706 0.466404 11.2204C0.907924 12.4937 1.64756 13.643 2.6236 14.5723C3.59965 15.5017 4.78379 16.1842 6.07725 16.5628C7.37071 16.9415 8.73597 17.0053 10.0591 16.7491C11.3823 16.4928 12.625 15.9239 13.6835 15.0897L17.3149 18.7209C17.5024 18.902 17.7536 19.0022 18.0143 19C18.275 18.9977 18.5244 18.8931 18.7088 18.7088C18.8931 18.5244 18.9977 18.275 19 18.0143C19.0022 17.7536 18.902 17.5025 18.7209 17.3149L15.0895 13.6837C16.0719 12.4375 16.6836 10.9398 16.8546 9.36216C17.0255 7.78451 16.7489 6.1906 16.0562 4.76284C15.3636 3.33508 14.283 2.13116 12.938 1.28886C11.5931 0.446551 10.0382 -0.000106534 8.45124 1.90596e-08ZM1.98798 8.45164C1.98798 6.73754 2.66893 5.09365 3.88102 3.8816C5.09312 2.66955 6.73708 1.98862 8.45124 1.98862C10.1654 1.98862 11.8094 2.66955 13.0215 3.8816C14.2336 5.09365 14.9145 6.73754 14.9145 8.45164C14.9145 10.1657 14.2336 11.8096 13.0215 13.0217C11.8094 14.2337 10.1654 14.9147 8.45124 14.9147C6.73708 14.9147 5.09312 14.2337 3.88102 13.0217C2.66893 11.8096 1.98798 10.1657 1.98798 8.45164Z" fill="#585B88"/>
</svg>
